{
  "accessors": [
    {
      "bufferView": 2,
      "componentType": 5126,
      "count": 65532,
      "max": [
        8.362863540649414,
        2.5432159900665283,
        11.718096733093262
      ],
      "min": [
        -13.53536605834961,
        -0.5440580248832703,
        -13.566701889038086
      ],
      "type": "VEC3"
    },
    {
      "bufferView": 2,
      "byteOffset": 786384,
      "componentType": 5126,
      "count": 65532,
      "max": [
        0.711368203163147,
        0.9103531241416931,
        0.9999231100082397
      ],
      "min": [
        -0.9999780058860779,
        -0.9999989867210388,
        -0.8518695831298828
      ],
      "type": "VEC3"
    },
    {
      "bufferView": 3,
      "componentType": 5126,
      "count": 65532,
      "max": [
        1.0,
        0.6116424798965454,
        0.976650595664978,
        1.0
      ],
      "min": [
        -0.8676430583000183,
        -0.9999999403953552,
        -1.0,
        -1.0
      ],
      "type": "VEC4"
    },
    {
      "bufferView": 1,
      "componentType": 5126,
      "count": 65532,
      "max": [
        0.8374680280685425,
        0.9945799708366394
      ],
      "min": [
        0.0050860000774264336,
        0.11093100160360336
      ],
      "type": "VEC2"
    },
    {
      "bufferView": 0,
      "componentType": 5125,
      "count": 360108,
      "type": "SCALAR"
    },
    {
      "bufferView": 2,
      "byteOffset": 1572768,
      "componentType": 5126,
      "count": 65532,
      "max": [
        11.768821716308594,
        3.356843948364258,
        11.690817832946777
      ],
      "min": [
        -13.534656524658203,
        -0.4355210065841675,
        -13.44859504699707
      ],
      "type": "VEC3"
    },
    {
      "bufferView": 2,
      "byteOffset": 2359152,
      "componentType": 5126,
      "count": 65532,
      "max": [
        0.9999876618385315,
        0.9999982118606567,
        0.9994004964828491
      ],
      "min": [
        -0.9997678995132446,
        -0.9999998807907104,
        -0.8670571446418762
      ],
      "type": "VEC3"
    },
    {
      "bufferView": 3,
      "byteOffset": 1048512,
      "componentType": 5126,
      "count": 65532,
      "max": [
        1.0,
        1.0,
        1.0,
        1.0
      ],
      "min": [
        -1.0,
        -0.9999890327453613,
        -0.9999838471412659,
        -1.0
      ],
      "type": "VEC4"
    },
    {
      "bufferView": 1,
      "byteOffset": 524256,
      "componentType": 5126,
      "count": 65532,
      "max": [
        0.9948650002479553,
        0.9945480227470398
      ],
      "min": [
        0.004999999888241291,
        0.004999999888241291
      ],
      "type": "VEC2"
    },
    {
      "bufferView": 0,
      "byteOffset": 1440432,
      "componentType": 5125,
      "count": 337941,
      "type": "SCALAR"
    },
    {
      "bufferView": 2,
      "byteOffset": 3145536,
      "componentType": 5126,
      "count": 65532,
      "max": [
        11.666210174560547,
        3.364022970199585,
        11.637853622436523
      ],
      "min": [
        -13.440506935119629,
        1.0607680082321167,
        -13.405213356018066
      ],
      "type": "VEC3"
    },
    {
      "bufferView": 2,
      "byteOffset": 3931920,
      "componentType": 5126,
      "count": 65532,
      "max": [
        0.9575314521789551,
        0.9999998807907104,
        0.8723040223121643
      ],
      "min": [
        -0.7733916640281677,
        0.11388003081083298,
        -0.8172788023948669
      ],
      "type": "VEC3"
    },
    {
      "bufferView": 3,
      "byteOffset": 2097024,
      "componentType": 5126,
      "count": 65532,
      "max": [
        0.33066993951797485,
        0.8338762521743774,
        0.9852948784828186,
        1.0
      ],
      "min": [
        -1.0,
        -0.8005633354187012,
        -0.9945178627967834,
        -1.0
      ],
      "type": "VEC4"
    },
    {
      "bufferView": 1,
      "byteOffset": 1048512,
      "componentType": 5126,
      "count": 65532,
      "max": [
        0.5359330177307129,
        0.5599539875984192
      ],
      "min": [
        0.004999999888241291,
        0.004999999888241291
      ],
      "type": "VEC2"
    },
    {
      "bufferView": 0,
      "byteOffset": 2792196,
      "componentType": 5125,
      "count": 364452,
      "type": "SCALAR"
    },
    {
      "bufferView": 2,
      "byteOffset": 4718304,
      "componentType": 5126,
      "count": 32515,
      "max": [
        11.768821716308594,
        3.358264923095703,
        11.684155464172363
      ],
      "min": [
        -13.49786376953125,
        1.0156489610671997,
        -13.651792526245117
      ],
      "type": "VEC3"
    },
    {
      "bufferView": 2,
      "byteOffset": 5108484,
      "componentType": 5126,
      "count": 32515,
      "max": [
        0.9999502301216125,
        0.9999984502792358,
        0.9974659085273743
      ],
      "min": [
        -0.9969943761825562,
        -0.9999906420707703,
        -0.9998921155929565
      ],
      "type": "VEC3"
    },
    {
      "bufferView": 3,
      "byteOffset": 3145536,
      "componentType": 5126,
      "count": 32515,
      "max": [
        1.0,
        1.0,
        0.9999997615814209,
        1.0
      ],
      "min": [
        -1.0,
        -0.9999839663505554,
        -0.9998926520347595,
        -1.0
      ],
      "type": "VEC4"
    },
    {
      "bufferView": 1,
      "byteOffset": 1572768,
      "componentType": 5126,
      "count": 32515,
      "max": [
        0.9950000047683716,
        0.758538007736206
      ],
      "min": [
        0.004999999888241291,
        0.004999999888241291
      ],
      "type": "VEC2"
    },
    {
      "bufferView": 0,
      "byteOffset": 4250004,
      "componentType": 5125,
      "count": 130827,
      "type": "SCALAR"
    }
  ],
  "asset": {
    "extras": {
      "author": "Igor Denisov (https://sketchfab.com/Digor)",
      "license": "CC-BY-4.0 (http://creativecommons.org/licenses/by/4.0/)",
      "source": "https://sketchfab.com/3d-models/the-last-coin-of-the-soviet-union-19915k-8f060abba75c432bb6f39f65ad157755",
      "title": "The last coin of the Soviet Union (1991.5k)"
    },
    "generator": "Sketchfab-12.67.0",
    "version": "2.0"
  },
  "bufferViews": [
    {
      "buffer": 0,
      "byteLength": 4773312,
      "name": "floatBufferViews",
      "target": 34963
    },
    {
      "buffer": 0,
      "byteLength": 1832888,
      "byteOffset": 4773312,
      "byteStride": 8,
      "name": "floatBufferViews",
      "target": 34962
    },
    {
      "buffer": 0,
      "byteLength": 5498664,
      "byteOffset": 6606200,
      "byteStride": 12,
      "name": "floatBufferViews",
      "target": 34962
    },
    {
      "buffer": 0,
      "byteLength": 3665776,
      "byteOffset": 12104864,
      "byteStride": 16,
      "name": "floatBufferViews",
      "target": 34962
    }
  ],
  "buffers": [
    {
      "byteLength": 15770640,
      "uri": "scene.bin"
    }
  ],
  "images": [
    {
      "uri": "textures/default_baseColor.jpeg"
    },
    {
      "uri": "textures/default_metallicRoughness.png"
    },
    {
      "uri": "textures/default_normal.png"
    }
  ],
  "materials": [
    {
      "doubleSided": true,
      "name": "default",
      "normalTexture": {
        "index": 2
      },
      "pbrMetallicRoughness": {
        "baseColorTexture": {
          "index": 0
        },
        "metallicRoughnessTexture": {
          "index": 1
        },
        "roughnessFactor": 0.6
      }
    }
  ],
  "meshes": [
    {
      "name": "Object_0",
      "primitives": [
        {
          "attributes": {
            "NORMAL": 1,
            "POSITION": 0,
            "TANGENT": 2,
            "TEXCOORD_0": 3
          },
          "indices": 4,
          "material": 0,
          "mode": 4
        }
      ]
    },
    {
      "name": "Object_1",
      "primitives": [
        {
          "attributes": {
            "NORMAL": 6,
            "POSITION": 5,
            "TANGENT": 7,
            "TEXCOORD_0": 8
          },
          "indices": 9,
          "material": 0,
          "mode": 4
        }
      ]
    },
    {
      "name": "Object_2",
      "primitives": [
        {
          "attributes": {
            "NORMAL": 11,
            "POSITION": 10,
            "TANGENT": 12,
            "TEXCOORD_0": 13
          },
          "indices": 14,
          "material": 0,
          "mode": 4
        }
      ]
    },
    {
      "name": "Object_3",
      "primitives": [
        {
          "attributes": {
            "NORMAL": 16,
            "POSITION": 15,
            "TANGENT": 17,
            "TEXCOORD_0": 18
          },
          "indices": 19,
          "material": 0,
          "mode": 4
        }
      ]
    }
  ],
  "nodes": [
    {
      "children": [
        1
      ],
      "matrix": [
        0.8908814787864685,
        -0.45346370339393616,
        -0.026474619284272295,
        0.0,
        -0.09418042749166489,
        -0.12738239765167214,
        -0.9873721599578857,
        0.0,
        0.4443650245666504,
        0.8821249604225159,
        -0.15619002282619457,
        0.0,
        0.46604639291763306,
        -0.33490908145904535,
        -0.19220410287380227,
        1.0
      ],
      "name": "Sketchfab_model"
    },
    {
      "children": [
        2,
        3,
        4,
        5
      ],
      "name": "1991.5kz.obj.cleaner.materialmerger.gles"
    },
    {
      "mesh": 0,
      "name": "Object_2"
    },
    {
      "mesh": 1,
      "name": "Object_3"
    },
    {
      "mesh": 2,
      "name": "Object_4"
    },
    {
      "mesh": 3,
      "name": "Object_5"
    }
  ],
  "samplers": [
    {
      "magFilter": 9729,
      "minFilter": 9987,
      "wrapS": 10497,
      "wrapT": 10497
    }
  ],
  "scene": 0,
  "scenes": [
    {
      "name": "Sketchfab_Scene",
      "nodes": [
        0
      ]
    }
  ],
  "textures": [
    {
      "sampler": 0,
      "source": 0
    },
    {
      "sampler": 0,
      "source": 1
    },
    {
      "sampler": 0,
      "source": 2
    }
  ]
}
